<?xml version="1.0" encoding="utf-8"?>
<!-- Generator: Adobe Illustrator 16.0.0, SVG Export Plug-In . SVG Version: 6.00 Build 0)  -->
<!DOCTYPE svg PUBLIC "-//W3C//DTD SVG 1.1//EN" "http://www.w3.org/Graphics/SVG/1.1/DTD/svg11.dtd">
<svg version="1.1" id="Layer_1" xmlns="http://www.w3.org/2000/svg" xmlns:xlink="http://www.w3.org/1999/xlink" x="0px" y="0px"
	 width="100px" height="100px" viewBox="0 0 100 100" enable-background="new 0 0 100 100" xml:space="preserve">
<g>
	<path fill-rule="evenodd" clip-rule="evenodd" fill="#231F20" d="M2.538,49.113c0.84-2.331,2.547-3.131,4.957-3.127
		c24.548,0.037,49.097,0.018,73.645,0.025c6.939,0.001,12.825,3.87,15.165,10.129c2.24,5.997,1.232,11.557-3.059,16.276
		c-4.291,4.721-9.767,6.342-15.913,4.591c-6.157-1.754-9.921-5.991-11.249-12.281c-0.234-1.104-0.337-2.277-0.244-3.397
		c0.185-2.211,1.843-3.547,4.038-3.455c2.258,0.095,3.759,1.573,3.798,3.833c0.045,2.456,0.927,4.516,2.785,6.118
		c2.656,2.291,6.457,2.54,9.382,0.66c2.938-1.887,4.305-5.47,3.359-8.803c-0.953-3.356-4.043-5.742-7.563-5.744
		c-17.384-0.014-34.768-0.007-52.152-0.007c-7.319,0-14.637-0.057-21.954,0.031c-2.474,0.03-4.17-0.8-4.996-3.181
		C2.538,50.225,2.538,49.668,2.538,49.113z"/>
	<path fill-rule="evenodd" clip-rule="evenodd" fill="#231F20" d="M2.538,37.255c1.048-2.526,1.921-3.105,4.704-3.105
		c20.686,0,41.373,0.001,62.06-0.001c3.866-0.001,6.864-2.03,7.929-5.463c0.973-3.147,0.266-5.968-2.151-8.201
		c-2.442-2.257-5.354-2.789-8.418-1.478c-3.014,1.29-4.737,3.699-4.794,6.989c-0.059,3.647-3.021,4.703-5.286,4.037
		c-1.677-0.492-2.663-1.917-2.67-3.886c-0.021-7.36,5.539-14.056,12.786-15.396c10.064-1.861,19.078,5.813,18.841,16.042
		c-0.19,8.208-7.155,15.169-15.395,15.258c-6.822,0.075-13.646,0.021-20.47,0.021c-14.111,0-28.221-0.025-42.33,0.025
		c-2.326,0.008-4.026-0.669-4.806-2.99C2.538,38.489,2.538,37.872,2.538,37.255z"/>
	<path fill-rule="evenodd" clip-rule="evenodd" fill="#231F20" d="M2.538,60.973c0.839-2.332,2.543-3.139,4.955-3.13
		c12.722,0.052,25.443,0.003,38.165,0.034c6.025,0.016,10.816,2.54,13.879,7.729c3.431,5.803,3.144,11.69-0.689,17.243
		c-3.648,5.284-10.179,7.784-16.378,6.216c-6.517-1.647-10.537-5.892-11.96-12.488c-0.237-1.1-0.339-2.275-0.245-3.395
		c0.185-2.212,1.842-3.545,4.04-3.454c2.258,0.095,3.758,1.571,3.799,3.832c0.044,2.454,0.926,4.514,2.782,6.116
		c2.657,2.294,6.458,2.544,9.385,0.661c2.938-1.887,4.303-5.47,3.357-8.801c-0.95-3.354-4.042-5.737-7.56-5.742
		c-12.845-0.015-25.69-0.043-38.536,0.024c-2.474,0.014-4.169-0.798-4.993-3.18C2.538,62.084,2.538,61.528,2.538,60.973z"/>
</g>
</svg>
